<svg width="1732" height="962" viewBox="0 0 1732 962" fill="none" xmlns="http://www.w3.org/2000/svg">
<path d="M1718.93 491.536C1716.05 509.812 1691.04 514.622 1683.34 519.431C1668.91 525.203 1666.99 538.669 1646.79 546.365C1633.32 551.174 1616.01 557.908 1620.82 574.26C1627.55 593.498 1634.28 608.889 1632.36 627.165C1620.82 659.87 1573.68 648.327 1549.64 664.679C1530.4 676.222 1536.17 690.651 1510.2 705.08C1496.73 711.813 1478.45 715.661 1463.06 723.356C1434.21 736.823 1417.85 754.137 1392.84 767.604C1375.53 776.261 1346.67 785.88 1321.66 789.728C1275.49 793.575 1211.04 787.804 1172.57 811.852C1159.1 820.509 1149.48 833.976 1133.13 846.48C1108.12 860.909 1078.3 871.49 1042.71 872.452C1005.2 873.414 948.443 858.985 916.7 870.528C902.271 875.338 896.5 887.843 876.299 899.385C855.137 909.966 831.09 919.586 801.271 919.586C774.337 919.586 749.327 911.89 727.203 905.157C697.384 896.5 664.679 890.728 652.175 864.757C628.127 819.547 599.27 828.204 571.374 813.775C560.793 808.966 552.136 802.233 539.631 796.461C530.012 792.614 498.269 782.994 498.269 763.756C500.193 747.404 502.117 724.318 516.545 713.737C481.917 704.118 476.145 704.118 451.135 694.499C392.459 672.375 342.44 693.537 279.916 695.461C245.287 695.461 205.849 682.956 208.734 648.327C209.696 636.784 214.506 620.432 221.239 610.813C215.468 581.955 181.801 587.727 176.991 556.946C171.22 522.317 118.315 524.241 111.581 487.688C101 441.516 47.1334 466.526 45.2096 432.859C34.6286 419.393 8.65706 423.24 9.61897 404.964C10.5809 388.611 5.77133 378.992 23.0857 372.259C50.0192 364.564 52.9049 358.792 61.5621 345.326C74.0669 327.049 96.1908 336.668 110.619 320.316C127.934 301.078 145.248 308.773 159.677 287.611C168.334 279.916 159.677 265.487 183.725 252.982C198.153 244.325 198.153 231.82 216.43 223.163C231.82 184.687 273.182 206.811 292.42 189.496C320.316 168.334 352.059 161.601 379.954 189.496C401.116 198.153 413.621 211.62 424.202 231.82C441.516 229.896 443.44 222.201 461.716 216.43C484.802 209.696 502.117 212.582 528.088 198.153C555.022 181.801 568.488 190.458 576.184 181.801C592.536 176.991 580.993 158.715 601.193 151.02C611.774 140.439 619.47 138.515 626.203 136.591C634.86 127.934 640.632 130.82 648.327 121.201C657.946 106.772 650.251 106.772 670.451 96.1909C677.184 85.6099 686.803 83.6861 693.537 77.9147C704.118 59.6384 723.356 58.6765 744.518 55.7907C780.109 45.2097 841.671 34.6287 875.338 51.9431L881.109 56.7527C898.423 61.5622 903.233 69.2575 908.042 75.9908C922.471 85.6099 925.357 86.5719 936.9 92.3433C948.443 95.229 953.252 106.772 956.138 110.62C973.452 114.467 981.148 120.239 994.614 131.782C1011.93 133.705 1015.78 143.325 1035.01 143.325C1063.87 138.515 1072.53 152.944 1083.11 152.944C1102.35 148.134 1106.2 159.677 1120.62 158.715C1140.82 150.058 1145.63 168.334 1168.72 168.334C1191.81 164.487 1197.58 152.944 1204.31 150.058C1212.01 140.439 1215.85 140.439 1220.66 139.477C1227.4 127.934 1249.52 121.201 1259.14 134.667C1275.49 135.629 1279.34 140.439 1283.19 150.058C1289.92 152.944 1296.65 163.525 1296.65 168.334C1304.35 173.144 1307.23 181.801 1314.93 191.42C1333.21 206.811 1334.17 213.544 1342.83 226.049C1350.52 234.706 1357.25 239.515 1369.76 242.401C1400.54 239.515 1413.05 241.439 1428.44 255.868C1448.64 266.449 1451.52 277.992 1466.91 287.611L1512.12 311.659C1536.17 313.583 1540.98 328.011 1554.45 335.706C1582.34 347.249 1607.35 342.44 1616.97 369.373C1629.47 379.954 1640.06 385.726 1641.98 407.85L1655.45 420.354C1660.26 452.097 1692 457.869 1698.73 461.717C1713.16 466.526 1720.86 477.107 1717.01 490.574L1718.93 491.536Z" fill="#FBE9D0" stroke="#B19D89" stroke-width="1.25048" stroke-miterlimit="10" stroke-linecap="round" stroke-linejoin="round"/>
<path d="M1718.93 491.536C1716.05 509.812 1691.04 514.622 1683.34 519.431C1668.91 525.203 1666.99 538.669 1646.79 546.365C1633.32 551.174 1616.01 557.908 1620.82 574.26C1627.55 593.498 1634.28 608.889 1632.36 627.165C1620.82 659.87 1573.68 648.327 1549.64 664.679C1530.4 676.222 1536.17 690.651 1510.2 705.08C1496.73 711.813 1478.45 715.661 1463.06 723.356C1434.21 736.823 1417.85 754.137 1392.85 767.604C1375.53 776.261 1346.67 785.88 1321.66 789.728C1275.49 793.575 1211.04 787.804 1172.57 811.852C1159.1 820.509 1149.48 833.976 1133.13 846.48C1108.12 860.909 1078.3 871.49 1042.71 872.452C1005.2 873.414 948.443 858.985 916.7 870.528C902.271 875.338 896.5 887.843 876.3 899.385C855.138 909.966 831.09 919.586 801.271 919.586C774.337 919.586 749.327 911.89 727.204 905.157C697.384 896.5 664.679 890.728 652.175 864.757C628.127 819.547 599.27 828.204 571.374 813.775C560.793 808.966 552.136 802.233 539.631 796.461C530.012 792.614 498.269 782.994 498.269 763.756C500.193 747.404 502.117 724.318 516.545 713.737C481.917 704.118 476.145 704.118 451.136 694.499C392.459 672.375 342.44 693.537 279.916 695.461C245.287 695.461 205.849 682.956 208.734 648.327C209.696 636.784 214.506 620.432 221.239 610.813C215.468 581.955 181.801 587.727 176.991 556.946C171.22 522.317 118.315 524.241 111.581 487.688C101 441.516 47.1335 466.526 45.2097 432.859C34.6287 419.393 8.65712 423.24 9.61903 404.964C10.5809 388.611 5.77139 378.992 23.0858 372.259C50.0192 364.564 52.905 358.792 61.5621 345.326C74.067 327.049 96.1909 336.668 110.62 320.316C127.934 301.078 145.248 308.773 159.677 287.611C168.334 279.916 159.677 265.487 183.725 252.982C198.153 244.325 198.153 231.82 216.43 223.163C231.82 184.687 273.182 206.811 292.42 189.496C320.316 168.334 352.059 161.601 379.954 189.496C401.116 198.153 413.621 211.62 424.202 231.82C441.516 229.896 443.44 222.201 461.717 216.43C484.802 209.696 502.117 212.582 528.088 198.153C555.022 181.801 568.489 190.458 576.184 181.801C592.536 176.991 580.993 158.715 601.193 151.02C611.774 140.439 619.47 138.515 626.203 136.591C634.86 127.934 640.632 130.82 648.327 121.201C657.946 106.772 650.251 106.772 670.451 96.1909C677.184 85.6099 686.803 83.6861 693.537 77.9147C704.118 59.6384 723.356 58.6765 744.518 55.7907C780.109 45.2097 841.671 34.6287 875.338 51.9431L881.109 56.7527C898.423 61.5622 903.233 69.2575 908.043 75.9908C922.471 85.6099 925.357 86.5719 936.9 92.3433C948.443 95.229 953.252 106.772 956.138 110.62C973.452 114.467 981.148 120.239 994.614 131.782C1011.93 133.705 1015.78 143.325 1035.01 143.325C1063.87 138.515 1072.53 152.944 1083.11 152.944C1102.35 148.134 1106.2 159.677 1120.62 158.715C1140.82 150.058 1145.63 168.334 1168.72 168.334C1191.81 164.487 1197.58 152.944 1204.31 150.058C1212.01 140.439 1215.85 140.439 1220.66 139.477C1227.4 127.934 1249.52 121.201 1259.14 134.667C1275.49 135.629 1279.34 140.439 1283.19 150.058C1289.92 152.944 1296.65 163.525 1296.65 168.334C1304.35 173.144 1307.23 181.801 1314.93 191.42C1333.21 206.811 1334.17 213.544 1342.83 226.049C1350.52 234.706 1357.25 239.515 1369.76 242.401C1400.54 239.515 1413.05 241.439 1428.44 255.868C1448.64 266.449 1451.52 277.992 1466.91 287.611L1512.12 311.659C1536.17 313.583 1540.98 328.011 1554.45 335.706C1582.34 347.249 1607.35 342.44 1616.97 369.373C1629.47 379.954 1640.06 385.726 1641.98 407.85L1655.45 420.354C1660.26 452.097 1692 457.869 1698.73 461.717C1713.16 466.526 1720.86 477.107 1717.01 490.574L1718.93 491.536Z" fill="#FBE9D0" stroke="#B19D89" stroke-width="1.25048" stroke-miterlimit="10" stroke-linecap="round" stroke-linejoin="round"/>
<path d="M1718.93 484.803C1721.82 510.774 1692.96 513.66 1679.49 520.393C1667.95 525.203 1663.14 539.632 1643.9 545.403C1626.59 552.136 1608.31 557.908 1622.74 578.108C1643.9 611.775 1597.73 629.089 1578.49 631.013C1560.22 633.899 1540.98 640.632 1533.28 655.061C1519.82 689.689 1482.3 696.423 1457.29 704.118C1432.28 713.737 1414.97 734.899 1392.85 749.328C1334.17 782.995 1271.64 765.68 1212.97 775.299C1174.49 781.071 1158.14 804.157 1141.79 816.661C1105.23 840.709 1068.68 848.404 1023.47 846.481C989.805 843.595 932.09 826.281 903.233 848.404C865.719 882.071 816.661 896.5 768.566 888.805C739.708 882.071 700.27 873.414 677.184 859.947C653.137 846.481 653.137 819.547 629.089 800.309C614.66 789.728 588.689 789.728 572.336 782.995L534.822 764.718C513.66 756.061 489.612 739.709 514.622 715.661C563.679 688.728 516.545 683.918 495.383 681.994C475.183 677.185 453.059 664.68 431.897 662.756C377.069 655.061 330.897 673.337 276.068 669.489C251.058 668.527 205.849 650.251 217.392 616.584C231.82 591.575 229.896 577.146 201.039 557.908C178.915 544.441 186.61 523.279 157.753 505.003C140.439 496.346 126.01 491.536 119.277 467.488C105.81 424.202 58.6764 443.441 44.2478 409.774C37.5144 398.231 9.61904 403.04 13.4667 378.993C15.3905 360.716 42.324 362.64 53.8669 351.097C68.2955 330.897 81.7623 330.897 97.1528 327.05C115.429 321.278 119.277 303.002 145.248 302.04C159.677 294.345 162.563 276.068 169.296 266.449C177.953 253.944 187.572 255.868 193.344 241.44C198.153 231.82 212.582 220.278 217.392 215.468C227.011 187.573 265.487 198.154 283.763 191.42C299.154 184.687 308.773 172.182 330.897 170.258C351.097 168.334 365.526 174.106 379.954 188.535C403.04 197.192 413.621 211.62 424.202 230.859C441.516 231.82 447.288 231.82 460.755 240.478C473.259 251.059 509.812 255.868 529.05 274.144C542.517 287.611 542.517 323.202 582.917 303.964C616.584 288.573 641.594 313.583 633.898 336.669C629.089 356.869 648.327 371.297 667.565 366.488C681.994 366.488 684.88 378.993 707.965 377.069C737.785 377.069 764.718 342.44 794.537 350.135C821.471 355.907 833.976 383.802 807.042 401.117C787.804 418.431 759.908 424.202 734.899 432.86C721.432 441.517 734.899 447.288 734.899 457.869C740.67 480.955 712.775 499.231 696.422 509.812C670.451 528.089 640.632 523.279 614.66 538.67C592.536 553.098 577.146 577.146 554.06 586.765C510.774 606.965 486.726 592.537 448.25 592.537C404.964 592.537 345.326 605.041 321.278 553.098C299.154 515.584 284.725 496.346 253.944 482.879C230.858 468.45 237.592 447.288 220.277 433.821C206.811 419.393 178.915 419.393 168.334 399.193C159.677 384.764 143.324 383.802 145.248 360.716C145.248 347.25 152.944 347.25 150.058 337.631C135.629 318.392 138.515 303.964 150.058 289.535C101.962 312.621 121.201 331.859 92.3433 347.25C77.9146 352.059 45.2097 374.183 71.1813 388.612C85.6099 399.193 106.772 398.231 124.086 413.621L145.248 436.707C154.867 448.25 168.334 448.25 179.877 455.945C205.849 471.336 207.772 489.612 220.277 509.812C236.63 530.012 259.716 542.517 258.754 573.298C255.868 587.727 245.287 606.003 254.906 621.394C284.725 668.527 356.868 643.518 398.231 640.632C437.669 635.822 448.25 649.289 477.107 657.946C500.193 668.527 534.822 653.137 554.06 664.68C572.336 678.147 554.06 698.347 542.517 707.966C567.527 707.966 572.336 736.823 595.422 746.442C616.584 756.061 638.708 751.252 657.946 769.528C674.299 782.995 682.956 804.157 701.232 823.395C732.013 850.328 797.423 865.719 837.823 853.214C869.566 843.595 889.766 816.661 923.433 808.966C953.252 804.157 985.957 818.585 1015.78 823.395C1048.48 826.281 1087.92 823.395 1114.85 804.157C1131.21 789.728 1136.02 769.528 1159.1 759.909C1187 747.404 1216.82 759.909 1249.52 757.023C1288 756.061 1334.17 749.328 1366.87 734.899C1389.96 725.28 1408.24 707.004 1429.4 696.423C1451.52 686.804 1475.57 679.108 1494.81 662.756C1511.16 648.327 1515.97 634.861 1538.09 626.203C1558.29 619.47 1603.5 616.584 1603.5 591.575C1603.5 573.298 1583.3 563.679 1593.88 544.441C1603.5 529.051 1631.4 515.584 1645.83 504.041C1660.26 494.422 1693.92 486.727 1669.88 461.717L1667.95 452.098C1687.19 466.526 1718.93 460.755 1718.93 484.803Z" fill="#FCEAD3" stroke="#B19D89" stroke-width="1.25048" stroke-miterlimit="10" stroke-linecap="round" stroke-linejoin="round"/>
<path d="M424.202 232.782C448.25 253.944 477.107 287.611 514.622 311.659C537.707 322.24 554.06 340.516 580.993 340.516C606.965 340.516 626.203 352.059 639.67 371.297C664.679 403.04 707.965 410.735 715.661 442.479C722.394 470.374 693.537 490.574 673.337 501.155C648.327 511.736 621.394 513.66 601.193 529.05C578.108 547.327 558.869 573.298 530.012 580.994C484.802 592.536 433.821 576.184 390.535 580.994C364.564 578.108 336.668 566.565 326.087 542.517C313.582 509.812 294.344 495.384 265.487 477.107C250.096 467.488 251.058 457.869 245.287 446.326C235.668 419.393 207.772 414.583 192.382 394.383C187.572 376.107 154.867 361.678 174.106 342.44C193.344 328.011 158.715 314.545 157.753 292.421" stroke="#B19D89" stroke-width="1.25048" stroke-miterlimit="10" stroke-linecap="round" stroke-linejoin="round"/>
<path d="M585.803 176.992C573.298 196.23 508.85 212.582 530.012 231.82C545.403 241.44 564.641 241.44 580.993 254.906C600.232 273.183 615.622 292.421 634.86 302.04C649.289 311.659 659.87 322.24 662.756 336.669C678.146 352.059 703.156 361.678 725.28 354.945C751.251 346.288 770.49 327.049 799.347 332.821C822.433 340.516 850.328 366.488 846.48 390.535C841.671 409.774 807.042 423.24 788.766 431.898C773.375 436.707 746.442 441.517 751.251 461.717C755.099 486.726 730.089 505.965 707.965 520.393C682.956 534.822 655.06 534.822 629.089 544.441C601.193 553.098 587.727 580.994 563.679 591.575C539.631 603.118 519.431 610.813 495.383 605.041C462.678 597.346 436.707 595.422 404.964 600.232C375.145 606.003 335.706 606.003 321.278 573.298C312.621 545.403 292.42 519.431 268.373 505.965C249.135 495.384 227.011 485.765 229.896 457.869C222.201 424.202 178.915 429.012 163.525 404.964C152.944 390.535 116.391 380.916 115.429 366.488C111.581 351.097 133.705 347.25 130.82 328.011C126.01 313.583 139.477 303.964 145.248 293.383" stroke="#B19D89" stroke-width="1.25048" stroke-miterlimit="10" stroke-linecap="round" stroke-linejoin="round"/>
<path d="M601.194 151.02C597.346 172.182 634.861 182.763 641.594 206.81C648.327 220.277 631.013 231.82 653.137 246.249C668.527 254.906 655.061 253.944 659.87 270.297L693.537 292.42C722.394 308.773 737.785 302.04 760.871 294.344C784.918 289.535 804.157 303.963 826.281 287.611C846.481 270.297 864.757 255.868 884.957 245.287C909.005 231.82 922.472 213.544 908.043 191.42C903.233 181.801 900.348 168.334 914.776 159.677C929.205 154.867 948.443 149.096 948.443 128.896C946.519 115.429 938.824 97.1528 927.281 91.3813" stroke="#B19D89" stroke-width="1.25048" stroke-miterlimit="10" stroke-linecap="round" stroke-linejoin="round"/>
<path d="M994.614 130.819C1015.78 154.867 999.424 181.801 972.49 188.534C957.1 193.344 932.09 205.848 936.9 227.01C942.671 253.944 922.471 282.801 894.576 294.344C841.671 328.011 890.728 351.097 909.966 380.916C932.09 409.773 909.966 452.097 875.338 455.945C857.061 460.754 859.947 477.107 833.013 481.916" stroke="#B19D89" stroke-width="1.25048" stroke-miterlimit="10" stroke-linecap="round" stroke-linejoin="round"/>
<path d="M976.338 479.993C1009.04 438.631 985.957 427.088 976.338 404.002C966.719 364.564 1001.35 371.297 1001.35 342.44" stroke="#B19D89" stroke-width="1.25048" stroke-miterlimit="10" stroke-linecap="round" stroke-linejoin="round"/>
<path d="M1030.21 480.955C1025.4 476.145 1044.63 461.717 1047.52 448.25C1048.48 429.012 1052.33 408.812 1076.38 394.383L1131.21 369.373" stroke="#B19D89" stroke-width="1.25048" stroke-miterlimit="10" stroke-linecap="round" stroke-linejoin="round"/>
<path d="M1121.59 384.764C1111.97 413.621 1095.61 427.088 1092.73 466.526" stroke="#B19D89" stroke-width="1.25048" stroke-miterlimit="10" stroke-linecap="round" stroke-linejoin="round"/>
<path d="M1083.11 467.488C1083.11 442.478 1108.12 427.088 1100.42 404.964" stroke="#B19D89" stroke-width="1.25048" stroke-miterlimit="10" stroke-linecap="round" stroke-linejoin="round"/>
<path d="M1049.44 476.145C1057.14 448.25 1073.49 429.012 1095.61 417.469" stroke="#B19D89" stroke-width="1.25048" stroke-miterlimit="10" stroke-linecap="round" stroke-linejoin="round"/>
<path d="M1222.59 266.449C1184.11 277.992 1179.3 311.659 1148.52 336.668L1126.4 370.335C1114.85 394.383 1119.66 401.116 1114.85 423.24L1100.42 462.679" stroke="#B19D89" stroke-width="1.25048" stroke-miterlimit="10" stroke-linecap="round" stroke-linejoin="round"/>
<path d="M879.186 489.612C900.348 460.754 924.395 486.726 917.662 443.44" stroke="#B19D89" stroke-width="1.25048" stroke-miterlimit="10" stroke-linecap="round" stroke-linejoin="round"/>
<path d="M216.43 217.391C210.658 244.325 237.592 236.63 245.287 253.944C250.096 265.487 227.011 277.992 221.239 292.42C212.582 321.278 235.668 327.049 255.868 332.82L293.382 351.097C351.097 376.106 364.564 330.897 409.773 317.43C429.012 312.62 461.717 297.23 443.44 260.677" stroke="#B19D89" stroke-width="1.25048" stroke-miterlimit="10" stroke-linecap="round" stroke-linejoin="round" stroke-dasharray="6.54 6.54"/>
<path d="M212.582 225.087C206.811 227.011 207.772 249.135 222.201 255.868C251.058 270.297 222.201 283.764 210.658 299.154C188.534 328.011 227.011 352.059 253.944 366.488L303.963 404.002C330.897 418.431 352.059 409.774 369.373 393.421C407.85 361.678 427.088 361.678 456.907 352.059C486.726 347.25 513.66 316.468 486.726 292.421" stroke="#B19D89" stroke-width="1.25048" stroke-miterlimit="10" stroke-linecap="round" stroke-linejoin="round" stroke-dasharray="6.44 6.44"/>
<path d="M443.44 251.058C472.298 277.992 477.107 322.24 414.583 331.859C378.992 336.668 369.373 346.287 351.097 361.678C303.963 393.421 268.373 351.097 225.087 337.63C187.572 318.392 222.201 283.763 250.096 273.182C259.716 245.287 245.287 239.515 229.896 234.706C210.658 225.087 220.277 211.62 221.239 215.468" stroke="#B19D89" stroke-width="1.25048" stroke-miterlimit="10" stroke-linecap="round" stroke-linejoin="round"/>
<path d="M193.344 231.82C188.534 241.439 186.611 259.715 201.039 270.296C222.201 283.763 210.658 303.001 191.42 322.239C174.106 345.325 201.039 352.059 207.773 374.183C222.201 393.421 250.097 400.154 264.525 427.088C288.573 466.526 335.707 480.955 371.297 436.707C399.193 408.811 419.393 388.611 455.945 388.611C485.764 383.802 523.279 374.183 520.393 336.668" stroke="#B19D89" stroke-width="1.25048" stroke-miterlimit="10" stroke-linecap="round" stroke-linejoin="round"/>
<path d="M198.153 229.897C178.915 253.944 193.344 270.297 206.811 278.954C216.43 293.383 197.192 303.964 186.611 318.392C176.991 332.821 183.725 318.392 158.715 299.154" stroke="#B19D89" stroke-width="1.25048" stroke-miterlimit="10" stroke-linecap="round" stroke-linejoin="round" stroke-dasharray="6.44 6.44"/>
<path d="M221.239 287.611C222.201 314.544 260.677 322.239 283.763 331.859C323.202 351.097 341.478 331.859 376.107 312.62C400.154 294.344 451.136 303.001 443.44 265.487" stroke="#B19D89" stroke-width="1.25048" stroke-miterlimit="10" stroke-linecap="round" stroke-linejoin="round" stroke-dasharray="6.54 6.54"/>
<path d="M234.706 268.373C217.392 260.678 198.153 255.868 193.344 234.706" stroke="#B19D89" stroke-width="1.25048" stroke-miterlimit="10" stroke-linecap="round" stroke-linejoin="round"/>
<path d="M225.087 278.954C222.201 303.963 249.134 313.583 268.373 321.278C289.535 328.011 303.963 341.478 331.859 332.821L379.954 306.849C399.192 302.04 436.707 302.04 437.669 273.182C437.669 244.325 400.154 234.706 389.573 216.43C376.106 187.572 328.011 168.334 297.23 192.382C287.611 202.963 241.439 198.153 245.287 217.392C254.906 231.82 279.915 230.858 269.334 255.868C273.182 284.725 323.201 318.392 374.183 287.611L404.964 273.182C437.669 251.058 407.849 227.011 390.535 222.201" stroke="#B19D89" stroke-width="1.25048" stroke-miterlimit="10" stroke-linecap="round" stroke-linejoin="round"/>
<path d="M270.297 260.678C284.725 282.801 316.468 297.23 350.135 283.763C369.373 273.182 424.202 255.868 365.526 225.087C354.945 191.42 312.621 192.382 297.23 215.468C287.611 225.087 303.002 231.82 299.154 246.249C308.773 278.954 359.754 265.487 364.564 249.135C365.526 234.706 352.059 222.201 342.44 215.468" stroke="#B19D89" stroke-width="1.25048" stroke-miterlimit="10" stroke-linecap="round" stroke-linejoin="round" stroke-dasharray="6.54 6.54"/>
<path d="M429.012 236.63L467.488 263.563C486.726 283.763 510.774 306.849 534.822 318.392" stroke="#B19D89" stroke-width="1.25048" stroke-miterlimit="10" stroke-linecap="round" stroke-linejoin="round"/>
<path d="M446.326 249.135C471.336 263.563 505.964 273.183 523.279 303.002C539.631 328.011 568.489 322.24 595.422 318.392C619.47 313.583 645.441 332.821 630.051 359.754" stroke="#B19D89" stroke-width="1.25048" stroke-miterlimit="10" stroke-linecap="round" stroke-linejoin="round" stroke-dasharray="6.54 6.54"/>
<path d="M429.012 388.612C448.25 398.231 475.183 393.421 495.384 388.612C532.898 375.145 544.441 384.764 572.336 383.802C605.041 383.802 624.279 351.097 582.917 350.135" stroke="#B19D89" stroke-width="1.25048" stroke-miterlimit="10" stroke-linecap="round" stroke-linejoin="round"/>
<path d="M572.336 355.906C552.136 351.097 539.631 366.487 561.755 369.373C576.184 369.373 582.917 359.754 572.336 355.906Z" stroke="#B19D89" stroke-width="1.25048" stroke-miterlimit="10" stroke-linecap="round" stroke-linejoin="round"/>
<path d="M432.86 404.964C398.231 404.964 385.726 437.669 366.488 457.869C303.002 500.193 366.488 538.669 414.583 549.25C461.717 552.136 523.279 549.25 556.946 513.659C576.184 484.802 614.66 480.955 635.822 471.335C673.337 453.059 686.804 429.011 650.251 390.535" stroke="#B19D89" stroke-width="1.25048" stroke-miterlimit="10" stroke-linecap="round" stroke-linejoin="round" stroke-dasharray="6.44 6.44"/>
<path d="M457.869 409.773C412.659 414.583 404.002 413.621 372.259 467.488C352.059 485.764 380.916 509.812 400.154 515.583C441.517 529.05 494.422 523.279 530.012 486.726C558.869 453.059 595.422 462.678 633.898 438.63C664.68 419.392 657.946 403.04 650.251 385.725" stroke="#B19D89" stroke-width="1.25048" stroke-miterlimit="10" stroke-linecap="round" stroke-linejoin="round"/>
<path d="M412.659 446.326C428.05 443.44 443.44 433.821 456.907 429.011" stroke="#B19D89" stroke-width="1.25048" stroke-miterlimit="10" stroke-linecap="round" stroke-linejoin="round" stroke-dasharray="6.54 6.54"/>
<path d="M400.154 452.097C361.678 476.145 398.231 519.431 457.869 515.583C510.774 513.659 520.393 486.726 544.441 471.335C572.336 451.135 645.441 451.135 653.137 404.964" stroke="#B19D89" stroke-width="1.25048" stroke-miterlimit="10" stroke-linecap="round" stroke-linejoin="round"/>
<path d="M409.773 480.955C404.964 495.384 433.821 499.231 456.907 491.536C486.726 481.917 491.536 457.869 515.583 442.479C544.441 427.088 576.184 429.012 591.574 422.279C619.47 414.583 649.289 390.536 630.051 364.564" stroke="#B19D89" stroke-width="1.25048" stroke-miterlimit="10" stroke-linecap="round" stroke-linejoin="round" stroke-dasharray="6.44 6.44"/>
<path d="M408.812 477.107C413.621 484.803 399.192 476.145 437.669 466.526C471.336 455.945 481.917 424.202 524.241 418.431L561.755 417.469C614.66 417.469 643.518 385.726 615.622 354.945" stroke="#B19D89" stroke-width="1.25048" stroke-miterlimit="10" stroke-linecap="round" stroke-linejoin="round"/>
<path d="M624.279 356.868C645.441 394.383 600.232 414.583 572.336 417.468" stroke="#B19D89" stroke-width="1.25048" stroke-miterlimit="10" stroke-linecap="round" stroke-linejoin="round"/>
<path d="M431.898 384.764C412.659 376.106 471.336 371.297 485.765 361.678C510.774 356.868 530.012 336.668 505.965 318.392" stroke="#B19D89" stroke-width="1.25048" stroke-miterlimit="10" stroke-linecap="round" stroke-linejoin="round" stroke-dasharray="6.44 6.44"/>
<path d="M650.251 375.145C668.527 385.726 679.108 404.964 706.041 399.192C727.203 399.192 763.756 361.678 774.337 380.916C792.613 409.773 720.47 408.811 722.394 429.012" stroke="#B19D89" stroke-width="1.25048" stroke-miterlimit="10" stroke-linecap="round" stroke-linejoin="round"/>
<path d="M725.28 432.859C736.823 453.059 746.442 471.336 717.584 494.421" stroke="#B19D89" stroke-width="1.25048" stroke-miterlimit="10" stroke-linecap="round" stroke-linejoin="round" stroke-dasharray="6.54 6.54"/>
<path d="M697.384 423.24C730.089 455.945 703.156 479.993 678.146 495.383" stroke="#B19D89" stroke-width="1.25048" stroke-miterlimit="10" stroke-linecap="round" stroke-linejoin="round"/>
<path d="M672.375 409.773C717.585 443.44 687.765 471.335 655.06 491.536C625.241 500.193 605.041 496.345 578.108 523.279C542.517 558.869 499.231 563.679 447.288 556.945" stroke="#B19D89" stroke-width="1.25048" stroke-miterlimit="10" stroke-linecap="round" stroke-linejoin="round" stroke-dasharray="6.44 6.44"/>
<path d="M648.327 494.422C616.584 501.155 597.346 505.965 576.184 530.012" stroke="#B19D89" stroke-width="1.25048" stroke-miterlimit="10" stroke-linecap="round" stroke-linejoin="round"/>
<path d="M639.67 505.003C605.041 510.774 595.422 520.393 572.336 542.517" stroke="#B19D89" stroke-width="1.25048" stroke-miterlimit="10" stroke-linecap="round" stroke-linejoin="round"/>
<path d="M664.68 532.898C633.898 534.822 609.851 542.517 591.574 563.679C572.336 582.917 549.25 602.155 520.393 611.774C489.612 615.622 465.564 602.155 437.669 606.965C399.193 610.812 365.526 629.089 330.897 634.86C303.002 638.708 270.297 619.47 273.182 582.917C260.678 532.898 222.201 519.431 212.582 496.345" stroke="#B19D89" stroke-width="1.25048" stroke-miterlimit="10" stroke-linecap="round" stroke-linejoin="round" stroke-dasharray="6.44 6.44"/>
<path d="M359.754 640.632C318.392 655.06 270.296 650.251 253.944 619.47" stroke="#B19D89" stroke-width="1.25048" stroke-miterlimit="10" stroke-linecap="round" stroke-linejoin="round" stroke-dasharray="6.54 6.54"/>
<path d="M414.583 624.279C443.44 624.279 461.717 638.708 486.726 645.441C510.774 650.251 543.479 640.631 561.755 625.241C590.613 606.965 601.194 580.993 629.089 563.679C649.289 547.326 677.184 549.25 701.232 539.631C720.47 532.898 760.871 504.04 756.061 481.916" stroke="#B19D89" stroke-width="1.25048" stroke-miterlimit="10" stroke-linecap="round" stroke-linejoin="round" stroke-dasharray="6.54 6.54"/>
<path d="M760.87 477.107C756.061 499.231 735.861 520.393 712.775 532.898C687.765 549.25 650.251 549.25 626.203 567.526C606.965 580.993 591.574 606.965 558.869 626.203" stroke="#B19D89" stroke-width="1.25048" stroke-miterlimit="10" stroke-linecap="round" stroke-linejoin="round"/>
<path d="M715.661 561.755C674.298 572.336 619.47 587.727 606.965 631.013C606.003 650.251 614.66 668.527 596.384 688.727C563.679 716.623 581.955 736.823 619.47 744.518" stroke="#B19D89" stroke-width="1.25048" stroke-miterlimit="10" stroke-linecap="round" stroke-linejoin="round" stroke-dasharray="6.44 6.44"/>
<path d="M626.203 600.232C606.965 619.47 602.155 640.632 611.774 664.679C611.774 683.918 563.679 706.042 595.422 734.899C620.432 751.251 650.251 744.518 673.337 764.718C706.042 794.537 725.28 818.585 780.109 823.395C850.328 833.014 876.3 784.918 914.776 782.994C966.719 780.109 1044.63 821.471 1095.62 775.299C1114.85 756.061 1111.01 739.708 1140.82 727.204C1162.95 716.623 1198.54 734.899 1225.47 734.899C1279.34 736.823 1326.47 727.204 1371.68 707.965L1410.16 682.956C1439.02 664.679 1470.76 659.87 1480.38 621.393C1486.15 587.727 1429.4 556.946 1465.95 534.822C1487.11 524.241 1506.35 515.583 1523.66 490.574C1543.86 462.678 1592.92 471.336 1616.97 443.44C1629.47 429.012 1619.86 413.621 1624.67 399.192L1611.2 375.145" stroke="#B19D89" stroke-width="1.25048" stroke-miterlimit="10" stroke-linecap="round" stroke-linejoin="round"/>
<path d="M1600.62 371.297C1612.16 385.725 1625.63 404.964 1621.78 423.24L1641.98 448.25C1658.33 484.802 1588.11 490.574 1559.26 505.964C1540.02 515.583 1540.02 523.279 1511.16 534.821C1487.11 544.441 1486.15 573.298 1506.35 587.726C1525.59 638.708 1439.02 629.089 1456.33 662.755" stroke="#B19D89" stroke-width="1.25048" stroke-miterlimit="10" stroke-linecap="round" stroke-linejoin="round" stroke-dasharray="6.54 6.54"/>
<path d="M1512.12 626.203C1530.4 615.622 1568.87 615.622 1568.87 582.917C1559.26 557.907 1559.26 537.707 1592.92 525.202C1612.16 520.393 1624.67 505.964 1643.9 496.345" stroke="#B19D89" stroke-width="1.25048" stroke-miterlimit="10" stroke-linecap="round" stroke-linejoin="round"/>
<path d="M751.252 552.136C725.28 572.336 659.87 587.726 655.061 616.584C653.137 634.86 674.299 640.632 659.87 667.565C639.67 702.194 668.527 706.041 688.727 721.432C717.585 739.708 732.013 768.566 764.718 773.375C807.042 789.728 847.443 775.299 870.528 764.718C909.005 746.442 960.948 773.375 985.957 736.822C994.615 707.965 1015.78 688.727 1047.52 688.727C1072.53 683.917 1078.3 667.565 1101.39 659.87C1131.21 650.251 1164.87 672.375 1197.58 679.108C1255.29 696.422 1313.97 686.803 1360.14 659.87C1384.19 640.631 1411.12 616.584 1399.58 580.993C1393.81 557.907 1386.11 532.898 1362.06 515.583" stroke="#B19D89" stroke-width="1.25048" stroke-miterlimit="10" stroke-linecap="round" stroke-linejoin="round" stroke-dasharray="6.54 6.54"/>
<path d="M710.851 626.203C696.422 668.527 732.013 686.803 770.489 681.994C813.775 677.184 832.052 679.108 864.757 683.918C922.471 687.765 936.9 672.375 966.719 650.251C989.805 634.86 1018.66 634.86 1039.82 619.47C1061.95 606.003 1081.19 587.727 1107.16 590.612C1140.82 595.422 1164.87 615.622 1197.58 619.47C1251.44 626.203 1303.39 606.965 1336.09 567.527C1360.14 549.25 1362.06 510.774 1338.02 490.574" stroke="#B19D89" stroke-width="1.25048" stroke-miterlimit="10" stroke-linecap="round" stroke-linejoin="round"/>
<path d="M721.432 606.965C716.623 649.289 749.327 664.679 782.994 657.946C827.242 650.251 842.633 659.87 870.528 664.679C909.004 668.527 924.395 655.06 948.443 640.632C970.567 621.394 999.424 619.47 1024.43 606.965C1049.44 592.536 1061.95 568.489 1091.77 562.717C1119.66 554.06 1149.48 576.184 1178.34 580.993C1227.4 587.727 1283.19 580.993 1313.97 547.327C1342.83 524.241 1340.9 505.964 1327.44 476.145" stroke="#B19D89" stroke-width="1.25048" stroke-miterlimit="10" stroke-linecap="round" stroke-linejoin="round" stroke-dasharray="6.44 6.44"/>
<path d="M732.013 587.726C712.775 640.631 736.823 664.679 787.804 659.87C823.395 655.06 841.671 659.87 870.528 664.679C909.005 668.527 928.243 657.946 953.252 640.631C980.186 620.431 1009.04 619.469 1033.09 606.965C1058.1 591.574 1072.53 572.336 1100.42 572.336C1129.28 572.336 1154.29 590.612 1182.19 595.422C1227.4 602.155 1275.49 596.384 1304.35 572.336C1333.21 553.098 1360.14 520.393 1336.09 486.726" stroke="#B19D89" stroke-width="1.25048" stroke-miterlimit="10" stroke-linecap="round" stroke-linejoin="round" stroke-dasharray="6.44 6.44"/>
<path d="M794.537 514.622C780.108 572.336 693.537 578.108 684.879 620.432C684.879 643.517 693.537 667.565 683.918 683.918C688.727 716.623 727.203 715.661 745.48 732.013C770.489 756.061 793.575 768.566 831.09 759.909C855.137 751.251 875.338 739.708 898.423 739.708C924.395 739.708 953.252 736.823 972.49 717.584C985.957 698.346 995.576 679.108 1025.4 673.337C1049.44 668.527 1062.91 650.251 1087.92 640.632C1116.78 616.584 1158.14 640.632 1187.96 650.251C1265.87 672.375 1336.09 650.251 1389.96 592.536C1405.35 572.336 1408.24 539.631 1366.87 514.622" stroke="#B19D89" stroke-width="1.25048" stroke-miterlimit="10" stroke-linecap="round" stroke-linejoin="round"/>
<path d="M775.299 557.908C751.251 580.993 716.622 592.536 707.965 626.203" stroke="#B19D89" stroke-width="1.25048" stroke-miterlimit="10" stroke-linecap="round" stroke-linejoin="round" stroke-dasharray="6.54 6.54"/>
<path d="M741.632 582.917C717.584 619.47 744.518 659.87 784.918 650.251C826.28 645.442 841.671 650.251 870.528 655.061C914.776 659.87 928.242 649.289 956.138 631.013C977.3 616.584 1009.04 615.622 1030.2 602.156C1049.44 590.613 1061.95 563.679 1091.77 558.87C1119.66 554.06 1145.63 572.336 1172.57 577.146C1217.78 585.803 1275.49 580.994 1309.16 549.251C1350.52 520.393 1336.09 481.917 1304.35 451.136" stroke="#B19D89" stroke-width="1.25048" stroke-miterlimit="10" stroke-linecap="round" stroke-linejoin="round"/>
<path d="M755.099 597.346C751.251 638.708 794.537 634.86 812.814 634.86C852.252 631.013 864.757 643.518 898.424 640.632C924.395 638.708 938.824 620.432 960.948 610.813C984.995 601.194 1010.97 601.194 1030.21 581.955C1083.11 542.517 1024.43 529.05 991.729 515.584C966.719 505.965 984.995 489.612 1014.81 484.803C1037.9 477.107 1066.76 472.298 1091.77 466.526C1107.16 457.869 1107.16 447.288 1120.62 437.669C1139.86 418.431 1162.95 399.193 1197.58 404.964C1217.78 399.193 1254.33 398.231 1270.68 413.621L1304.35 441.517C1313.97 467.488 1332.24 462.679 1342.83 462.679C1371.68 471.336 1386.11 462.679 1409.2 451.136C1434.21 443.441 1443.83 442.479 1461.14 427.088C1475.57 409.774 1491.92 403.04 1511.16 394.383C1542.9 371.297 1528.47 318.392 1485.19 302.04" stroke="#B19D89" stroke-width="1.25048" stroke-miterlimit="10" stroke-linecap="round" stroke-linejoin="round"/>
<path d="M1540.02 337.63C1582.34 359.754 1600.62 414.583 1552.52 429.011C1511.16 436.707 1506.35 443.44 1485.19 462.678C1461.14 495.383 1434.21 491.536 1410.16 501.155C1390.92 509.812 1381.3 530.012 1345.71 509.812" stroke="#B19D89" stroke-width="1.25048" stroke-miterlimit="10" stroke-linecap="round" stroke-linejoin="round" stroke-dasharray="6.44 6.44"/>
<path d="M1456.33 283.763C1486.15 299.154 1499.62 331.859 1466.91 352.059C1446.71 364.564 1439.02 383.802 1413.05 393.421C1381.3 404.964 1355.33 407.85 1326.47 398.231L1279.34 394.383L1275.49 390.535L1245.67 398.231" stroke="#B19D89" stroke-width="1.25048" stroke-miterlimit="10" stroke-linecap="round" stroke-linejoin="round"/>
<path d="M1237.02 260.677C1217.78 265.487 1203.35 287.611 1231.24 302.039C1227.4 322.239 1254.33 331.859 1275.49 327.049C1302.43 322.239 1313.97 331.858 1338.02 332.82C1379.38 332.82 1434.21 316.468 1419.78 251.058" stroke="#B19D89" stroke-width="1.25048" stroke-miterlimit="10" stroke-linecap="round" stroke-linejoin="round" stroke-dasharray="6.54 6.54"/>
<path d="M1422.66 255.868C1451.52 270.296 1472.68 308.773 1428.44 342.44C1400.54 361.678 1357.25 371.297 1326.47 366.487C1304.35 364.563 1289.92 359.754 1270.68 361.678C1249.52 364.563 1203.35 364.563 1197.58 342.44L1184.11 330.897C1168.72 317.43 1178.34 306.849 1184.11 302.039" stroke="#B19D89" stroke-width="1.25048" stroke-miterlimit="10" stroke-linecap="round" stroke-linejoin="round"/>
<path d="M1174.49 317.43C1168.72 337.63 1187.96 341.478 1196.62 361.678C1220.66 393.421 1264.91 366.487 1285.11 380.916C1297.62 389.573 1379.38 389.573 1409.2 380.916C1429.4 375.145 1446.71 356.868 1466.91 345.326" stroke="#B19D89" stroke-width="1.25048" stroke-miterlimit="10" stroke-linecap="round" stroke-linejoin="round" stroke-dasharray="6.44 6.44"/>
<path d="M1169.68 326.088C1159.1 347.25 1179.3 347.25 1179.3 369.373C1191.81 404.964 1251.44 379.954 1274.53 388.612" stroke="#B19D89" stroke-width="1.25048" stroke-miterlimit="10" stroke-linecap="round" stroke-linejoin="round" stroke-dasharray="6.54 6.54"/>
<path d="M1159.1 340.516C1149.48 361.678 1179.3 366.488 1168.72 385.726C1162.95 393.421 1162.95 409.774 1184.11 395.345" stroke="#B19D89" stroke-width="1.25048" stroke-miterlimit="10" stroke-linecap="round" stroke-linejoin="round" stroke-dasharray="6.44 6.44"/>
<path d="M1150.44 352.059C1145.63 369.373 1155.25 376.106 1155.25 385.725C1153.33 393.421 1149.48 399.192 1145.63 413.621" stroke="#B19D89" stroke-width="1.25048" stroke-miterlimit="10" stroke-linecap="round" stroke-linejoin="round" stroke-dasharray="6.54 6.54"/>
<path d="M1139.86 361.678C1131.21 376.106 1139.86 385.725 1140.82 395.345C1139.86 408.811 1134.09 409.773 1136.01 419.392" stroke="#B19D89" stroke-width="1.25048" stroke-miterlimit="10" stroke-linecap="round" stroke-linejoin="round" stroke-dasharray="6.44 6.44"/>
<path d="M1130.24 376.106C1120.62 385.725 1125.43 404.964 1126.4 414.583C1126.4 423.24 1116.78 436.707 1116.78 436.707" stroke="#B19D89" stroke-width="1.25048" stroke-miterlimit="10" stroke-linecap="round" stroke-linejoin="round" stroke-dasharray="6.54 6.54"/>
<path d="M1278.38 244.325C1251.44 244.325 1196.62 260.678 1188.92 293.383C1187 311.659 1197.58 318.392 1207.2 326.088C1220.66 352.059 1246.63 352.059 1274.53 351.097C1299.54 346.288 1318.78 356.869 1341.86 356.869C1380.34 356.869 1437.09 342.44 1434.21 289.535" stroke="#B19D89" stroke-width="1.25048" stroke-miterlimit="10" stroke-linecap="round" stroke-linejoin="round"/>
<path d="M1226.43 292.42C1222.59 278.954 1240.86 263.563 1251.44 263.563C1275.49 249.134 1288 253.944 1312.04 258.754C1341.86 263.563 1365.91 236.63 1393.81 241.439C1419.78 244.325 1418.82 275.106 1398.62 283.763" stroke="#B19D89" stroke-width="1.25048" stroke-miterlimit="10" stroke-linecap="round" stroke-linejoin="round" stroke-dasharray="6.44 6.44"/>
<path d="M1255.29 287.611C1270.68 255.868 1293.77 260.678 1316.85 273.182C1341.86 278.954 1361.1 294.344 1380.34 284.725L1399.58 270.297" stroke="#B19D89" stroke-width="1.25048" stroke-miterlimit="10" stroke-linecap="round" stroke-linejoin="round"/>
<path d="M1265.87 292.42C1293.77 308.773 1304.35 293.382 1323.59 302.04C1347.64 316.468 1370.72 316.468 1398.62 302.04C1410.16 293.382 1414.97 284.725 1424.59 274.144" stroke="#B19D89" stroke-width="1.25048" stroke-miterlimit="10" stroke-linecap="round" stroke-linejoin="round" stroke-dasharray="6.44 6.44"/>
<path d="M1288 297.23C1307.24 297.23 1322.63 308.773 1340.9 313.583C1357.25 318.392 1380.34 313.583 1399.58 303.964" stroke="#B19D89" stroke-width="1.25048" stroke-miterlimit="10" stroke-linecap="round" stroke-linejoin="round"/>
<path d="M1342.83 278.954L1366.87 265.487C1376.49 260.677 1384.19 255.868 1389.96 260.677" stroke="#B19D89" stroke-width="1.25048" stroke-miterlimit="10" stroke-linecap="round" stroke-linejoin="round" stroke-dasharray="6.54 6.54"/>
<path d="M1293.77 154.867C1307.24 172.182 1302.43 196.229 1278.38 197.191C1259.14 197.191 1240.86 183.724 1222.59 188.534C1193.73 188.534 1168.72 169.296 1191.81 159.677" stroke="#B19D89" stroke-width="1.25048" stroke-miterlimit="10" stroke-linecap="round" stroke-linejoin="round"/>
<path d="M1285.11 145.248C1304.35 162.562 1280.3 182.763 1261.06 177.953C1245.67 173.143 1212.97 187.572 1191.81 167.372" stroke="#B19D89" stroke-width="1.25048" stroke-miterlimit="10" stroke-linecap="round" stroke-linejoin="round" stroke-dasharray="6.44 6.44"/>
<path d="M1274.53 139.477C1288 154.867 1265.87 169.296 1246.63 163.525C1230.28 163.525 1202.39 163.525 1206.23 150.058" stroke="#B19D89" stroke-width="1.25048" stroke-miterlimit="10" stroke-linecap="round" stroke-linejoin="round"/>
<path d="M1256.25 134.667C1275.49 144.286 1251.44 158.715 1231.24 150.058C1220.66 150.058 1222.59 138.515 1217.78 148.134" stroke="#B19D89" stroke-width="1.25048" stroke-miterlimit="10" stroke-linecap="round" stroke-linejoin="round" stroke-dasharray="6.54 6.54"/>
<path d="M1236.05 139.477C1227.4 145.248 1249.52 150.058 1251.44 144.286" stroke="#B19D89" stroke-width="1.25048" stroke-miterlimit="10" stroke-linecap="round" stroke-linejoin="round"/>
<path d="M1155.25 169.296C1131.21 192.382 1179.3 206.81 1196.62 207.772C1217.78 211.62 1236.05 217.391 1254.33 225.087C1274.53 230.858 1318.78 225.087 1318.78 196.229" stroke="#B19D89" stroke-width="1.25048" stroke-miterlimit="10" stroke-linecap="round" stroke-linejoin="round" stroke-dasharray="6.54 6.54"/>
<path d="M1313.97 192.382C1323.59 216.43 1293.77 234.706 1275.49 234.706C1254.33 234.706 1231.24 222.201 1212.97 217.392C1193.73 211.62 1155.25 207.772 1145.63 182.763" stroke="#B19D89" stroke-width="1.25048" stroke-miterlimit="10" stroke-linecap="round" stroke-linejoin="round"/>
<path d="M1155.25 169.296C1136.02 162.563 1116.78 167.372 1100.42 159.677L1061.95 154.867C1052.33 150.058 1037.9 135.629 1033.09 152.944C1035.01 188.534 994.615 191.42 972.491 212.582C948.443 234.706 980.186 260.677 962.872 287.611C953.252 302.04 958.062 318.392 932.09 340.516C905.157 370.335 934.014 385.726 934.014 407.85C934.014 424.202 934.014 443.44 922.471 455.945" stroke="#B19D89" stroke-width="1.25048" stroke-miterlimit="10" stroke-linecap="round" stroke-linejoin="round" stroke-dasharray="6.44 6.44"/>
<path d="M1024.43 150.058C1061.95 167.372 1020.59 191.42 1005.2 198.153C982.11 207.772 941.71 222.201 962.872 249.134C962.872 289.534 929.205 294.344 903.233 327.049C884.957 364.563 937.862 383.802 914.776 414.583" stroke="#B19D89" stroke-width="1.25048" stroke-miterlimit="10" stroke-linecap="round" stroke-linejoin="round"/>
<path d="M893.614 438.63C874.376 443.44 861.871 453.059 852.252 461.716C831.09 472.297 783.957 472.297 778.185 494.421C760.871 544.441 722.394 558.869 681.994 578.107C662.756 587.726 630.051 606.965 634.861 631.012C640.632 645.441 650.251 657.946 643.518 674.298C616.584 707.965 626.203 721.432 664.68 732.013C701.232 744.518 721.432 789.728 770.49 798.385C816.661 804.156 832.052 792.613 866.681 780.108C898.424 759.908 937.862 780.108 972.491 768.566C995.577 763.756 1006.16 751.251 1009.04 730.089C1018.66 703.156 1037.9 702.194 1059.06 702.194C1086 696.422 1095.62 668.527 1126.4 673.336C1164.87 674.298 1182.19 703.156 1255.29 698.346C1316.85 698.346 1351.48 688.727 1395.73 655.06L1422.66 640.632C1451.52 621.393 1419.78 592.536 1409.2 573.298L1389 529.05" stroke="#B19D89" stroke-width="1.25048" stroke-miterlimit="10" stroke-linecap="round" stroke-linejoin="round" stroke-dasharray="6.54 6.54"/>
<path d="M1405.35 557.908L1434.21 590.612C1451.52 611.774 1438.05 635.822 1414.97 645.441C1393.81 655.06 1374.57 672.375 1347.64 683.918C1299.54 707.965 1227.4 715.661 1172.57 707.965C1145.63 698.346 1131.21 686.803 1101.39 703.156C1062.91 727.204 1083.11 749.328 1061.95 768.566C1044.63 784.918 1015.78 784.918 1010.97 759.909" stroke="#B19D89" stroke-width="1.25048" stroke-miterlimit="10" stroke-linecap="round" stroke-linejoin="round" stroke-dasharray="6.44 6.44"/>
<path d="M982.11 125.048C1001.35 152.944 982.11 167.372 956.138 177.953C928.243 188.534 924.395 196.23 927.281 222.201C928.243 260.677 857.062 278.954 857.062 323.202C861.871 352.059 909.005 378.992 893.614 409.773C883.995 429.012 861.871 427.088 845.519 446.326C828.204 460.755 792.614 457.869 774.337 472.298C764.718 480.955 764.718 499.231 749.328 515.583" stroke="#B19D89" stroke-width="1.25048" stroke-miterlimit="10" stroke-linecap="round" stroke-linejoin="round"/>
<path d="M760.871 504.041C735.861 549.251 697.384 552.136 655.06 572.336C626.203 587.727 587.727 635.822 619.47 669.489C606.965 693.537 576.184 721.432 635.822 736.823C672.375 740.671 683.918 756.061 703.156 778.185" stroke="#B19D89" stroke-width="1.25048" stroke-miterlimit="10" stroke-linecap="round" stroke-linejoin="round" stroke-dasharray="6.54 6.54"/>
<path d="M640.632 722.394C659.87 732.013 674.298 732.013 688.727 746.442L716.622 770.49" stroke="#B19D89" stroke-width="1.25048" stroke-miterlimit="10" stroke-linecap="round" stroke-linejoin="round"/>
<path d="M784.918 746.442C813.775 756.061 828.204 739.708 846.48 732.013C885.919 712.775 928.243 736.823 958.062 707.965C982.109 687.765 985.957 668.527 1020.59 657.946C1049.44 655.06 1063.87 631.013 1092.73 621.394C1124.47 606.003 1162.95 635.822 1198.54 640.632C1256.25 650.251 1318.78 626.203 1352.44 582.917C1370.72 563.679 1374.57 538.669 1357.25 509.812" stroke="#B19D89" stroke-width="1.25048" stroke-miterlimit="10" stroke-linecap="round" stroke-linejoin="round" stroke-dasharray="6.44 6.44"/>
<path d="M1044.63 668.527C1068.68 659.87 1078.3 640.632 1107.16 640.632C1145.63 640.632 1179.3 659.87 1216.82 664.679C1278.38 674.298 1351.48 640.632 1375.53 592.536C1386.11 577.146 1381.3 553.098 1366.87 523.279" stroke="#B19D89" stroke-width="1.25048" stroke-miterlimit="10" stroke-linecap="round" stroke-linejoin="round"/>
<path d="M989.805 668.527C970.567 679.108 966.719 702.194 938.824 712.775" stroke="#B19D89" stroke-width="1.25048" stroke-miterlimit="10" stroke-linecap="round" stroke-linejoin="round" stroke-dasharray="6.44 6.44"/>
<path d="M994.615 657.946C1015.78 645.441 1044.63 645.441 1066.76 626.203C1092.73 606.003 1107.16 601.193 1139.86 610.813C1182.19 621.394 1216.82 634.86 1261.06 621.394C1293.77 615.622 1393.81 554.06 1345.71 505.003" stroke="#B19D89" stroke-width="1.25048" stroke-miterlimit="10" stroke-linecap="round" stroke-linejoin="round" stroke-dasharray="6.54 6.54"/>
<path d="M1006.16 645.441C1035.01 640.632 1052.33 619.47 1076.38 610.812C1107.16 592.536 1143.71 606.965 1178.34 611.774C1222.59 621.393 1285.11 611.774 1313.97 585.803C1333.21 567.526 1360.14 554.06 1347.64 501.155" stroke="#B19D89" stroke-width="1.25048" stroke-miterlimit="10" stroke-linecap="round" stroke-linejoin="round"/>
<path d="M1068.68 481.917C1043.67 501.155 1048.48 525.203 1081.19 533.86C1107.16 544.441 1130.24 538.67 1168.72 549.251C1220.66 563.679 1270.68 554.06 1299.54 520.393C1323.59 496.346 1326.47 466.526 1293.77 436.707" stroke="#B19D89" stroke-width="1.25048" stroke-miterlimit="10" stroke-linecap="round" stroke-linejoin="round"/>
<path d="M1119.66 442.478C1101.39 471.336 1130.24 457.869 1126.4 467.488C1120.62 479.993 1095.62 481.917 1095.62 495.383C1097.54 515.584 1134.09 515.584 1155.25 520.393C1187.96 530.012 1208.16 539.631 1241.83 530.012C1270.68 520.393 1316.85 480.955 1294.73 443.44" stroke="#B19D89" stroke-width="1.25048" stroke-miterlimit="10" stroke-linecap="round" stroke-linejoin="round" stroke-dasharray="6.44 6.44"/>
<path d="M1155.25 414.583C1116.78 433.821 1149.48 446.326 1145.63 457.869C1126.4 480.955 1131.21 496.345 1164.87 504.041C1198.54 514.622 1226.43 519.431 1251.44 499.231C1264.91 491.536 1265.87 476.145 1280.3 467.488C1299.54 455.945 1284.15 423.24 1259.14 408.812" stroke="#B19D89" stroke-width="1.25048" stroke-miterlimit="10" stroke-linecap="round" stroke-linejoin="round"/>
<path d="M1145.63 424.202C1145.63 441.516 1149.48 441.516 1155.25 452.097C1155.25 466.526 1131.21 476.145 1145.63 494.421C1169.68 509.812 1211.04 520.393 1236.05 504.04C1251.44 495.383 1255.29 481.916 1264.91 472.297C1270.68 461.716 1292.81 453.059 1275.49 427.088" stroke="#B19D89" stroke-width="1.25048" stroke-miterlimit="10" stroke-linecap="round" stroke-linejoin="round" stroke-dasharray="6.44 6.44"/>
<path d="M1188.92 432.859C1164.87 455.945 1168.72 480.955 1197.58 485.764C1216.82 485.764 1232.21 485.764 1245.67 467.488C1251.44 457.869 1285.11 443.44 1255.29 419.392" stroke="#B19D89" stroke-width="1.25048" stroke-miterlimit="10" stroke-linecap="round" stroke-linejoin="round"/>
<path d="M1193.73 436.707C1187 461.716 1208.16 472.297 1226.43 461.716L1241.83 448.25C1259.14 432.859 1226.43 413.621 1193.73 436.707Z" stroke="#B19D89" stroke-width="1.25048" stroke-miterlimit="10" stroke-linecap="round" stroke-linejoin="round" stroke-dasharray="6.54 6.54"/>
<path d="M624.279 139.477C616.584 169.296 674.298 177.953 669.489 202.963C650.251 217.391 639.67 241.439 664.679 249.134C674.298 260.677 650.251 263.563 673.337 275.106" stroke="#B19D89" stroke-width="1.25048" stroke-miterlimit="10" stroke-linecap="round" stroke-linejoin="round"/>
<path d="M668.527 202.963C664.68 227.01 683.918 225.087 697.385 234.706C730.089 260.677 789.728 265.487 832.052 255.868L879.185 231.82C903.233 222.201 918.624 206.81 895.538 174.105" stroke="#B19D89" stroke-width="1.25048" stroke-miterlimit="10" stroke-linecap="round" stroke-linejoin="round" stroke-dasharray="6.44 6.44"/>
<path d="M688.727 253.944C720.47 284.725 773.375 274.144 808.966 277.992L857.061 246.249L889.766 231.82C909.004 222.201 909.004 198.153 899.385 182.763" stroke="#B19D89" stroke-width="1.25048" stroke-miterlimit="10" stroke-linecap="round" stroke-linejoin="round"/>
<path d="M698.346 202.963C739.708 234.706 789.728 245.287 835.899 225.087C860.909 217.391 905.157 202.963 885.918 174.105" stroke="#B19D89" stroke-width="1.25048" stroke-miterlimit="10" stroke-linecap="round" stroke-linejoin="round" stroke-dasharray="6.54 6.54"/>
<path d="M707.004 167.372C703.156 206.81 770.49 227.01 807.042 217.391C832.052 212.582 905.157 188.534 876.3 159.677L861.871 145.248C851.29 121.2 871.49 121.2 894.576 116.391C928.243 106.772 913.814 76.9525 898.424 63.4857" stroke="#B19D89" stroke-width="1.25048" stroke-miterlimit="10" stroke-linecap="round" stroke-linejoin="round"/>
<path d="M895.538 73.1048C899.385 97.1526 871.49 92.343 851.29 101C828.204 116.391 840.709 130.819 841.671 144.286C841.671 174.105 784.918 188.534 751.251 168.334C716.623 144.286 741.632 135.629 736.823 116.391C730.089 95.2287 687.765 86.5715 716.623 63.4857" stroke="#B19D89" stroke-width="1.25048" stroke-miterlimit="10" stroke-linecap="round" stroke-linejoin="round" stroke-dasharray="6.44 6.44"/>
<path d="M689.689 82.724C683.918 111.581 736.823 111.581 732.013 144.286C727.204 173.144 760.87 197.191 793.575 198.153C821.471 198.153 880.147 176.991 857.061 150.058C837.823 121.2 861.871 106.772 884.957 101.962C905.157 96.1907 905.157 73.1049 885.919 58.6763" stroke="#B19D89" stroke-width="1.25048" stroke-miterlimit="10" stroke-linecap="round" stroke-linejoin="round"/>
<path d="M755.099 61.5622C688.727 77.9147 755.099 97.1529 755.099 116.391C755.099 130.82 739.709 140.439 755.099 158.715C784.918 187.572 852.252 174.106 840.709 138.515C826.281 111.581 836.862 90.4195 866.681 86.5718C899.386 86.5718 885.919 53.8669 869.566 48.0955" stroke="#B19D89" stroke-width="1.25048" stroke-miterlimit="10" stroke-linecap="round" stroke-linejoin="round" stroke-dasharray="6.44 6.44"/>
<path d="M765.68 72.1434C730.089 82.7244 765.68 97.153 773.375 111.582C778.185 121.201 773.375 135.629 793.575 154.868C812.814 159.677 828.204 144.287 817.623 130.82C808.966 106.772 846.48 90.4197 808.966 71.1815C797.423 67.3338 782.994 68.2957 765.68 72.1434Z" stroke="#B19D89" stroke-width="1.25048" stroke-miterlimit="10" stroke-linecap="round" stroke-linejoin="round"/>
<path d="M792.613 128.896C789.728 106.772 808.966 97.1529 821.471 86.5719C823.395 61.5623 754.137 68.2956 755.099 85.61C756.061 97.1529 782.994 101.962 780.109 121.201" stroke="#B19D89" stroke-width="1.25048" stroke-miterlimit="10" stroke-linecap="round" stroke-linejoin="round" stroke-dasharray="6.54 6.54"/>
<path d="M837.823 58.6764C851.29 73.105 874.376 63.4859 856.099 56.7526C851.29 53.8668 835.899 56.7526 837.823 58.6764Z" stroke="#B19D89" stroke-width="1.25048" stroke-miterlimit="10" stroke-linecap="round" stroke-linejoin="round"/>
<path d="M679.108 85.6101C669.489 101.963 679.108 116.391 698.346 125.048C725.28 140.439 716.623 154.868 703.156 172.182" stroke="#B19D89" stroke-width="1.25048" stroke-miterlimit="10" stroke-linecap="round" stroke-linejoin="round" stroke-dasharray="6.44 6.44"/>
<path d="M664.679 95.2292C658.908 130.82 716.622 128.896 710.851 157.753L703.156 173.144L657.946 215.468C648.327 241.44 679.108 234.706 698.346 249.135" stroke="#B19D89" stroke-width="1.25048" stroke-miterlimit="10" stroke-linecap="round" stroke-linejoin="round"/>
<path d="M657.946 101.962C653.136 126.01 668.527 140.439 688.727 150.058C727.203 174.105 679.108 187.572 659.87 212.582" stroke="#B19D89" stroke-width="1.25048" stroke-miterlimit="10" stroke-linecap="round" stroke-linejoin="round" stroke-dasharray="6.54 6.54"/>
<path d="M639.67 125.048C635.822 154.867 688.727 164.487 683.918 191.42" stroke="#B19D89" stroke-width="1.25048" stroke-miterlimit="10" stroke-linecap="round" stroke-linejoin="round"/>
<path d="M645.441 116.391C639.67 150.058 703.156 158.715 693.537 181.801" stroke="#B19D89" stroke-width="1.25048" stroke-miterlimit="10" stroke-linecap="round" stroke-linejoin="round" stroke-dasharray="6.54 6.54"/>
<path d="M905.157 82.724C932.09 119.277 866.68 106.772 861.871 135.629C861.871 158.715 903.233 164.486 889.766 191.42C871.49 207.772 835.899 217.391 808.004 225.087" stroke="#B19D89" stroke-width="1.25048" stroke-miterlimit="10" stroke-linecap="round" stroke-linejoin="round"/>
<path d="M919.585 86.5718C941.709 121.201 899.385 125.048 885.919 130.82C866.68 139.477 870.528 158.715 885.919 168.334" stroke="#B19D89" stroke-width="1.25048" stroke-miterlimit="10" stroke-linecap="round" stroke-linejoin="round" stroke-dasharray="6.54 6.54"/>
<path d="M943.633 96.1909C970.567 130.82 937.862 144.286 914.776 150.058C893.614 158.715 881.109 177.953 905.157 187.572" stroke="#B19D89" stroke-width="1.25048" stroke-miterlimit="10" stroke-linecap="round" stroke-linejoin="round"/>
<path d="M957.1 109.658C972.491 140.439 953.253 150.058 928.243 157.753C895.538 168.334 912.852 187.573 914.776 198.154" stroke="#B19D89" stroke-width="1.25048" stroke-miterlimit="10" stroke-linecap="round" stroke-linejoin="round" stroke-dasharray="6.54 6.54"/>
<path d="M965.757 111.581C989.805 150.058 957.1 164.486 928.243 173.144C903.233 182.763 934.014 206.81 903.233 230.858C880.147 245.287 822.433 284.725 828.204 308.773C813.775 346.287 857.061 355.906 864.757 385.726C870.528 409.773 847.442 413.621 832.052 429.011C811.852 446.326 773.375 438.631 759.909 462.678C755.099 476.145 760.87 484.802 745.48 501.155" stroke="#B19D89" stroke-width="1.25048" stroke-miterlimit="10" stroke-linecap="round" stroke-linejoin="round"/>
<path d="M768.566 486.726C775.299 462.678 803.195 467.488 828.204 455.945C842.633 446.326 852.252 436.707 870.528 428.05" stroke="#B19D89" stroke-width="1.25048" stroke-miterlimit="10" stroke-linecap="round" stroke-linejoin="round" stroke-dasharray="6.44 6.44"/>
<path d="M832.052 321.278C828.204 345.326 875.338 371.297 871.49 399.193" stroke="#B19D89" stroke-width="1.25048" stroke-miterlimit="10" stroke-linecap="round" stroke-linejoin="round"/>
<path d="M837.823 313.582C840.709 337.63 893.614 376.106 893.614 399.192" stroke="#B19D89" stroke-width="1.25048" stroke-miterlimit="10" stroke-linecap="round" stroke-linejoin="round" stroke-dasharray="6.44 6.44"/>
<path d="M885.918 265.487C842.633 297.23 833.013 323.201 871.49 356.868" stroke="#B19D89" stroke-width="1.25048" stroke-miterlimit="10" stroke-linecap="round" stroke-linejoin="round"/>
<path d="M899.386 255.868L874.376 275.106" stroke="#B19D89" stroke-width="1.25048" stroke-miterlimit="10" stroke-linecap="round" stroke-linejoin="round" stroke-dasharray="6.54 6.54"/>
<path d="M917.662 202.963C922.471 236.629 883.995 245.287 864.757 260.677L847.442 278.953" stroke="#B19D89" stroke-width="1.25048" stroke-miterlimit="10" stroke-linecap="round" stroke-linejoin="round"/>
<path d="M1014.81 154.867C1024.43 191.42 989.805 193.344 962.872 207.772C928.243 227.01 966.719 260.677 917.662 302.039" stroke="#B19D89" stroke-width="1.25048" stroke-miterlimit="10" stroke-linecap="round" stroke-linejoin="round" stroke-dasharray="6.44 6.44"/>
<path d="M1124.47 193.344C1139.86 222.201 1187.96 230.858 1231.24 253.944" stroke="#B19D89" stroke-width="1.25048" stroke-miterlimit="10" stroke-linecap="round" stroke-linejoin="round"/>
<path d="M1145.63 198.153C1174.49 222.201 1226.43 216.429 1251.44 241.439" stroke="#B19D89" stroke-width="1.25048" stroke-miterlimit="10" stroke-linecap="round" stroke-linejoin="round" stroke-dasharray="6.54 6.54"/>
<path d="M1044.63 217.391C1024.43 222.201 977.3 227.01 985.957 260.677C1001.35 294.344 1005.2 336.668 970.567 354.944C914.776 384.764 985.957 413.621 952.29 457.869L943.633 472.297" stroke="#B19D89" stroke-width="1.25048" stroke-miterlimit="10" stroke-linecap="round" stroke-linejoin="round"/>
<path d="M1049.44 231.82C1081.19 227.011 1091.77 206.81 1102.35 216.43C1131.21 241.439 1164.87 234.706 1191.81 245.287L1212.97 255.868" stroke="#B19D89" stroke-width="1.25048" stroke-miterlimit="10" stroke-linecap="round" stroke-linejoin="round" stroke-dasharray="6.54 6.54"/>
<path d="M1024.43 361.678C1054.25 361.678 1087.92 331.859 1095.61 308.773C1114.85 279.916 1148.52 288.573 1168.72 308.773" stroke="#B19D89" stroke-width="1.25048" stroke-miterlimit="10" stroke-linecap="round" stroke-linejoin="round" stroke-dasharray="6.44 6.44"/>
<path d="M1030.2 375.145C1091.77 366.488 1095.61 327.049 1105.23 313.583C1119.66 293.382 1145.63 299.154 1164.87 311.659" stroke="#B19D89" stroke-width="1.25048" stroke-miterlimit="10" stroke-linecap="round" stroke-linejoin="round"/>
<path d="M1010.97 366.487C1042.71 361.678 1061.95 341.478 1059.06 313.582C1037.9 260.677 1090.81 240.477 1136.01 258.753L1191.81 283.763" stroke="#B19D89" stroke-width="1.25048" stroke-miterlimit="10" stroke-linecap="round" stroke-linejoin="round" stroke-dasharray="6.54 6.54"/>
<path d="M1014.81 479.993C1042.71 448.25 1018.66 427.088 1006.16 407.849C994.615 380.916 1025.4 380.916 1039.82 376.106" stroke="#B19D89" stroke-width="1.25048" stroke-miterlimit="10" stroke-linecap="round" stroke-linejoin="round"/>
<path d="M994.615 481.916C1042.71 433.821 989.805 428.049 1010.97 385.725" stroke="#B19D89" stroke-width="1.25048" stroke-miterlimit="10" stroke-linecap="round" stroke-linejoin="round" stroke-dasharray="6.54 6.54"/>
<path d="M905.157 499.231C927.281 471.336 960.947 476.145 1001.35 484.802" stroke="#B19D89" stroke-width="1.25048" stroke-miterlimit="10" stroke-linecap="round" stroke-linejoin="round"/>
<path d="M866.68 479.993C893.614 491.536 899.385 491.536 914.776 491.536L932.09 504.041L962.871 505.003L977.3 509.812" stroke="#B19D89" stroke-width="1.25048" stroke-miterlimit="10" stroke-linecap="round" stroke-linejoin="round"/>
<path d="M759.909 553.098C799.347 520.393 784.918 491.536 826.28 476.145C851.29 472.297 869.566 480.955 889.766 489.612C908.043 485.764 922.471 499.231 929.205 504.04C947.481 504.04 965.757 499.231 976.338 509.812C991.729 520.393 1024.43 529.05 1015.78 549.25C1005.2 567.526 977.3 567.526 952.29 577.145C928.243 587.726 909.004 606.965 881.109 606.003L837.823 611.774" stroke="#B19D89" stroke-width="1.25048" stroke-miterlimit="10" stroke-linecap="round" stroke-linejoin="round"/>
<path d="M793.575 578.107C784.918 606.003 832.052 597.346 860.909 606.003C899.385 621.393 922.471 602.155 947.481 591.574C972.491 581.955 1072.53 553.098 982.11 515.583" stroke="#B19D89" stroke-width="1.25048" stroke-miterlimit="10" stroke-linecap="round" stroke-linejoin="round" stroke-dasharray="6.54 6.54"/>
<path d="M826.28 567.527C812.814 587.727 847.442 590.612 871.49 597.346C912.852 602.155 919.586 587.727 943.633 572.336L965.757 549.25" stroke="#B19D89" stroke-width="1.25048" stroke-miterlimit="10" stroke-linecap="round" stroke-linejoin="round"/>
<path d="M840.709 542.517C832.052 572.336 852.252 585.803 885.919 582.917C905.157 582.917 918.624 558.869 936.9 554.06C947.481 549.25 977.3 544.441 972.491 533.86L960.948 520.393L922.472 510.774H893.614C860.909 499.231 835.9 510.774 840.709 542.517Z" stroke="#B19D89" stroke-width="1.25048" stroke-miterlimit="10" stroke-linecap="round" stroke-linejoin="round" stroke-dasharray="6.44 6.44"/>
<path d="M770.489 557.907C789.728 542.517 792.613 530.012 799.347 509.812C818.585 467.488 857.061 472.297 885.918 486.726" stroke="#B19D89" stroke-width="1.25048" stroke-miterlimit="10" stroke-linecap="round" stroke-linejoin="round"/>
<path d="M755.099 602.155C745.48 567.527 787.804 554.06 804.156 520.393L797.423 538.669L784.918 553.098C764.718 567.527 751.251 581.955 755.099 602.155Z" stroke="#B19D89" stroke-width="1.25048" stroke-miterlimit="10" stroke-linecap="round" stroke-linejoin="round"/>
<path d="M794.537 561.755C770.489 580.993 780.108 609.851 812.813 610.813" stroke="#B19D89" stroke-width="1.25048" stroke-miterlimit="10" stroke-linecap="round" stroke-linejoin="round"/>
<path d="M537.708 739.708C530.013 726.242 554.06 715.661 558.87 707.965" stroke="#B19D89" stroke-width="1.25048" stroke-miterlimit="10" stroke-linecap="round" stroke-linejoin="round" stroke-dasharray="6.54 6.54"/>
<path d="M1322.63 192.382C1336.09 211.62 1328.4 245.287 1293.77 241.439" stroke="#B19D89" stroke-width="1.25048" stroke-miterlimit="10" stroke-linecap="round" stroke-linejoin="round"/>
<path d="M1338.02 210.658C1350.52 234.706 1333.21 246.249 1318.78 246.249" stroke="#B19D89" stroke-width="1.25048" stroke-miterlimit="10" stroke-linecap="round" stroke-linejoin="round" stroke-dasharray="6.44 6.44"/>
<path d="M1303.39 443.44C1326.47 436.707 1338.02 443.44 1357.25 446.326C1380.34 446.326 1400.54 432.859 1422.66 427.088C1447.67 418.43 1458.25 395.345 1486.15 380.916C1511.16 369.373 1520.78 345.325 1501.54 313.582" stroke="#B19D89" stroke-width="1.25048" stroke-miterlimit="10" stroke-linecap="round" stroke-linejoin="round"/>
<path d="M1318.78 414.583C1338.02 413.621 1345.71 423.24 1366.87 427.088C1390.92 427.088 1419.78 419.392 1438.05 409.773C1448.64 399.192 1463.06 384.764 1487.11 371.297C1506.35 359.754 1515.01 342.44 1501.54 313.582" stroke="#B19D89" stroke-width="1.25048" stroke-miterlimit="10" stroke-linecap="round" stroke-linejoin="round" stroke-dasharray="6.54 6.54"/>
<path d="M1283.19 419.392C1299.54 424.202 1309.16 417.468 1322.63 414.583" stroke="#B19D89" stroke-width="1.25048" stroke-miterlimit="10" stroke-linecap="round" stroke-linejoin="round" stroke-dasharray="6.44 6.44"/>
<path d="M1313.01 461.716C1342.83 457.869 1361.1 477.107 1389.96 460.754C1414.97 446.326 1438.05 448.25 1456.33 433.821C1476.53 414.583 1486.15 404.964 1514.05 399.192C1538.09 394.383 1563.1 354.944 1533.28 323.201" stroke="#B19D89" stroke-width="1.25048" stroke-miterlimit="10" stroke-linecap="round" stroke-linejoin="round"/>
<path d="M1328.4 480.955C1357.25 495.383 1374.57 496.345 1399.58 480.955C1419.78 461.716 1441.9 466.526 1457.29 456.907C1477.49 446.326 1490 423.24 1515.01 414.583C1542.9 407.849 1549.64 389.573 1549.64 371.297" stroke="#B19D89" stroke-width="1.25048" stroke-miterlimit="10" stroke-linecap="round" stroke-linejoin="round" stroke-dasharray="6.44 6.44"/>
<path d="M120.001 311.242C120.25 311.047 120.606 311.069 120.829 311.294C121.052 311.518 121.072 311.875 120.875 312.123C120.42 312.696 119.987 313.266 119.586 313.835C119.544 313.894 119.492 313.946 119.432 313.987C116.694 315.888 113.95 318.255 111.193 321.317L111.194 321.318C103.822 329.671 94.4668 331.381 85.6043 333.297C76.7072 335.22 68.28 337.349 62.1814 346.267C57.8752 352.961 54.9327 357.866 49.6678 362.029C44.4032 366.191 36.8586 369.583 23.3875 373.435C19.0388 375.125 16.1633 376.995 14.2625 379.052C14.2342 379.233 14.2103 379.427 14.1873 379.641C14.1862 379.652 14.184 379.662 14.1824 379.673C13.2418 385.564 14.2541 389.6 16.3201 392.549C18.4015 395.519 21.6124 397.476 25.2449 399.084C27.058 399.886 28.9564 400.594 30.8543 401.3C32.7454 402.002 34.639 402.704 36.41 403.487C39.8289 404.998 42.9013 406.857 44.7137 409.756L44.8855 410.04L44.9197 410.108C51.9998 426.628 67.0534 430.173 82.4119 435.011C90.0517 437.417 97.7448 440.148 104.373 445.024C110.813 449.762 116.221 456.504 119.647 466.874L119.972 467.888L119.977 467.906C123.314 479.813 128.537 486.913 135.042 492.116C141.588 497.352 149.429 500.675 158.135 505.025C158.153 505.035 158.172 505.045 158.19 505.056C172.763 514.287 178.117 524.268 182.588 533.572C186.978 542.709 190.476 551.07 200.966 557.648L201.471 557.961L201.492 557.974C214.589 566.707 222.276 574.528 225.349 582.891C228.417 591.238 226.84 599.982 221.783 610.447C221.845 610.719 221.904 610.995 221.959 611.271C221.992 611.439 221.955 611.613 221.857 611.753C220.253 614.041 218.759 616.719 217.397 619.642C213.121 635.359 221.599 647.529 234.362 655.963C246.744 664.145 263.019 668.694 275.041 669.394L276.19 669.45L276.21 669.451C303.552 671.371 328.739 667.774 354.009 664.645C379.254 661.52 404.569 658.864 432.058 662.721C442.732 663.69 453.621 667.326 464.322 671.294C475.038 675.267 485.549 679.565 495.587 681.956C500.871 682.438 507.787 683.102 514.425 684.247C521.06 685.391 527.5 687.029 531.752 689.494C533.879 690.727 535.532 692.208 536.346 694.008C537.176 695.84 537.094 697.904 535.951 700.175C534.819 702.422 532.642 704.893 529.245 707.632C525.856 710.364 521.217 713.389 515.103 716.749C512.577 719.183 510.565 721.532 509.005 723.793C507.529 726.22 506.294 728.856 505.261 731.636C505.26 731.638 505.261 731.64 505.261 731.641C503.276 739.263 506.59 745.824 512.541 751.376C518.127 756.588 525.963 760.83 533.632 764.088L535.163 764.726L535.2 764.743L572.696 783.015C580.803 786.345 591.283 788.012 601.668 790.184C611.678 792.279 621.589 794.845 628.869 799.894L629.565 800.39L629.587 800.406C641.719 810.116 647.782 821.773 653.783 832.575C659.7 843.226 665.549 853.037 677.04 859.676L677.592 859.989L677.6 859.994C689.076 866.683 704.645 872.197 720.984 876.884C737.307 881.565 754.351 885.41 768.783 888.78C816.688 896.433 865.551 882.061 902.919 848.519L902.956 848.488C917.591 837.271 939.454 836.101 961.706 838.027C972.853 838.992 984.145 840.739 994.74 842.422C1005.35 844.106 1015.24 845.724 1023.63 846.441H1023.63C1068.72 848.353 1105.12 840.684 1141.53 816.736C1157.73 804.346 1174.3 781.07 1212.97 775.267C1242.36 770.449 1272.78 772.372 1302.99 771.294C1333.25 770.214 1363.43 766.132 1392.64 749.374C1403.65 742.186 1413.45 733.338 1423.7 725.02C1433.93 716.714 1444.57 708.967 1457.17 704.121L1457.21 704.107C1469.77 700.239 1485.32 696.657 1499.45 689.713C1513.54 682.783 1526.15 672.541 1532.8 655.418L1532.83 655.35C1536.77 647.978 1543.63 642.61 1551.76 638.728C1559.89 634.846 1569.33 632.428 1578.5 630.977L1578.53 630.972C1586.27 630.206 1598.44 626.913 1608.74 621.037C1619.06 615.148 1627.33 606.775 1627.64 595.916L1627.65 595.804C1627.71 595.551 1627.92 595.352 1628.18 595.315C1628.48 595.273 1628.77 595.456 1628.86 595.747C1632.19 606.335 1634.27 616.529 1633.09 627.819C1633.08 627.868 1633.07 627.917 1633.06 627.963C1627.16 644.658 1612.17 650.004 1595.92 653.254C1591.85 654.068 1587.68 654.753 1583.54 655.449C1579.41 656.146 1575.3 656.854 1571.32 657.715C1563.37 659.438 1556.01 661.762 1550.1 665.781C1550.09 665.788 1550.08 665.795 1550.07 665.801C1540.6 671.48 1537.3 677.837 1533.08 684.708C1528.84 691.618 1523.72 698.927 1510.61 706.211C1510.6 706.215 1510.59 706.219 1510.58 706.223C1503.8 709.612 1495.82 712.271 1487.66 715.033C1479.47 717.801 1471.1 720.676 1463.45 724.504C1463.44 724.506 1463.44 724.508 1463.43 724.511C1449.06 731.216 1437.79 738.884 1426.98 746.574C1416.17 754.259 1405.79 761.982 1393.25 768.735C1393.25 768.738 1393.24 768.74 1393.24 768.743C1375.86 777.432 1346.93 787.073 1321.86 790.932C1321.85 790.935 1321.83 790.936 1321.82 790.937C1310.26 791.901 1297.55 792.262 1284.42 792.637C1271.28 793.013 1257.71 793.403 1244.38 794.423C1217.71 796.464 1192.11 801.025 1173.01 812.965L1173.01 812.964C1166.34 817.254 1160.61 822.742 1154.47 828.756C1148.35 834.762 1141.83 841.284 1133.62 847.561C1133.59 847.577 1133.57 847.592 1133.55 847.605C1108.46 862.078 1078.54 872.696 1042.83 873.659H1042.83C1024.03 874.14 1000.38 870.767 977.592 868.729C954.73 866.685 932.74 865.986 917.019 871.702C917.014 871.704 917.009 871.705 917.004 871.707C909.925 874.066 904.96 878.31 899.186 883.482C893.419 888.649 886.88 894.705 876.716 900.517C876.706 900.523 876.695 900.528 876.685 900.533C855.481 911.13 831.338 920.8 801.376 920.8C774.328 920.8 749.231 913.069 727.124 906.343V906.342C712.265 902.027 696.564 898.4 683.054 892.61C669.519 886.81 658.06 878.792 651.713 865.616V865.615C639.762 843.16 626.657 834.127 613.095 828.891C606.28 826.261 599.353 824.588 592.324 822.658C585.315 820.733 578.232 818.558 571.201 814.926C565.88 812.505 561.044 809.602 556.006 806.601C550.958 803.595 545.697 800.485 539.484 797.617C534.718 795.711 524.313 792.316 515.136 787.003C505.981 781.703 497.751 774.329 497.751 764.345C497.751 764.32 497.752 764.295 497.755 764.271C498.91 754.4 500.085 741.944 504.059 731.293C504.06 731.29 504.061 731.288 504.061 731.285C504.752 728.655 506.027 725.92 507.971 723.091V723.09C509.934 719.855 512.331 716.962 515.274 714.594C481.76 705.32 475.765 705.189 451.012 695.668V695.667C421.805 684.656 394.742 684.412 367.136 687.172C353.322 688.553 339.397 690.683 324.981 692.594C310.575 694.503 295.699 696.188 280.035 696.669C280.029 696.669 280.022 696.67 280.016 696.67C262.644 696.67 244.014 693.536 230.063 686.015C223.083 682.252 217.25 677.377 213.346 671.222C209.437 665.06 207.483 657.648 208.214 648.862C208.948 640.066 211.887 628.521 216.215 619.223C216.408 618.469 216.648 617.719 216.903 616.964C216.916 616.924 216.934 616.886 216.955 616.85C218.267 614.584 219.436 612.403 220.465 610.3C217.3 596.896 207.778 591.437 198.179 585.503C188.546 579.548 178.902 573.134 176.479 557.637L176.338 556.848C173.202 540.414 159.065 532.49 144.441 524.168C129.703 515.78 114.511 506.998 111.076 488.414C108.463 477.013 103.196 470.054 96.7596 465.473C90.2966 460.874 82.6141 458.641 75.1023 456.778C67.6422 454.928 60.2812 453.433 54.7 450.267C51.89 448.673 49.5017 446.643 47.7576 443.91C46.0407 441.219 44.9718 437.883 44.7049 433.682C42.1566 430.505 38.6978 428.311 34.8914 426.54C31.0041 424.731 26.8616 423.404 22.9617 421.881C19.1064 420.375 15.5132 418.684 12.951 416.168C10.355 413.618 8.84982 410.255 9.10136 405.511V405.508C9.27742 402.51 9.25865 399.736 9.21855 397.152C9.17857 394.577 9.11735 392.171 9.21269 389.949C9.4013 385.553 10.2071 381.753 13.0877 378.486C14.5349 369.528 22.0613 365.523 30.3201 362.375C34.5411 360.766 38.8974 359.399 43.0027 357.687C47.0661 355.993 50.7396 354.012 53.493 351.27C60.7559 341.119 67.8084 336.003 75.0066 332.953C82.1512 329.926 89.4783 328.933 97.075 327.035C101.998 325.481 105.863 322.998 109.429 320.17C111.217 318.752 112.924 317.253 114.656 315.737C116.385 314.225 118.138 312.697 120.001 311.242ZM1691 515.865C1691.32 515.752 1691.67 515.915 1691.79 516.232C1691.91 516.549 1691.76 516.905 1691.44 517.033C1688.22 518.341 1685.52 519.449 1683.78 520.543C1683.75 520.563 1683.71 520.581 1683.68 520.595C1676.62 523.419 1672.62 528.11 1667.79 533.191C1662.95 538.27 1657.35 543.64 1647.12 547.538L1647.11 547.543C1640.36 549.948 1632.76 552.803 1627.45 557.055C1624.8 559.174 1622.75 561.615 1621.64 564.488C1620.54 567.349 1620.36 570.692 1621.52 574.66C1621.77 575.372 1622.02 576.075 1622.28 576.786C1622.38 577.084 1622.25 577.415 1621.96 577.554C1621.68 577.694 1621.33 577.599 1621.16 577.334C1618.07 572.565 1616.81 568.549 1617.03 565.087C1617.25 561.606 1618.95 558.79 1621.54 556.423C1624.11 554.066 1627.6 552.128 1631.45 550.376C1635.31 548.623 1639.59 547.033 1643.78 545.401C1643.79 545.395 1643.81 545.39 1643.83 545.386C1653.31 542.542 1659.23 537.57 1664.25 532.672C1669.23 527.809 1673.43 522.872 1679.34 520.405C1682.59 518.788 1686.71 517.385 1691 515.865ZM188.029 249.832C188.282 249.624 188.653 249.646 188.879 249.884C189.104 250.121 189.109 250.493 188.888 250.735C186.056 253.844 182.828 255.74 179.619 257.959C176.396 260.186 173.09 262.796 169.91 267.39L169.909 267.392C168.627 269.228 167.481 271.395 166.353 273.775C165.948 275.188 165.629 276.565 165.313 277.911C164.996 279.265 164.681 280.593 164.286 281.856C163.501 284.37 162.386 286.68 160.249 288.607C158.813 290.705 157.346 292.532 155.845 294.127C153.187 297.721 149.906 300.899 145.639 303.176C145.557 303.22 145.465 303.245 145.371 303.249C144.4 303.288 143.472 303.348 142.566 303.436C142.546 303.438 142.526 303.439 142.506 303.439C142.442 303.439 142.441 303.441 142.438 303.441C142.112 303.495 141.799 303.285 141.726 302.962C141.654 302.639 141.845 302.315 142.164 302.223C142.172 302.221 142.18 302.218 142.185 302.216C142.191 302.213 142.192 302.213 142.189 302.215L142.277 302.165C146.644 300.183 150.862 297.602 154.886 293.322C159.453 287.127 162.169 279.682 165.18 273.329C166.115 270.113 167.511 266.689 170.273 263.24C173.046 259.778 177.17 256.321 183.522 253.017C185.206 252.008 186.686 250.94 188.029 249.832Z" fill="#DDCBB4"/>
</svg>
